<svg xmlns="http://www.w3.org/2000/svg" viewBox="0 0 64 64" role="img" aria-label="LIVE SYNESIS">
  <defs>
    <linearGradient id="g" x1="8" y1="6" x2="56" y2="58" gradientUnits="userSpaceOnUse">
      <stop stop-color="#2b75ff"/>
      <stop offset="1" stop-color="#0f3a9c"/>
    </linearGradient>
  </defs>
  <rect width="64" height="64" rx="17" fill="url(#g)"/>
  <path d="M43.8 20.6c-3-2.4-6.8-3.6-11.2-3.6-7.2 0-12.1 3.5-12.1 8.8 0 5.1 3.7 7.3 10.8 8.7 4.3.9 5.7 1.8 5.7 3.7 0 2-2 3.2-5.2 3.2-3.8 0-7.1-1.3-10-4l-4.2 5.2c3.7 3.5 8.5 5.3 14.2 5.3 7.5 0 12.6-3.8 12.6-9.7 0-5-3.4-7.4-10.7-8.9-4.5-.9-5.9-1.7-5.9-3.4 0-1.6 1.7-2.6 4.7-2.6 3.2 0 5.7.9 7.7 2.8l3.6-5.5Z" fill="white"/>
</svg>
